<svg width="24" height="24" viewBox="0 0 24 24" fill="none" xmlns="http://www.w3.org/2000/svg">
<path d="M12.5 17C13.0523 17 13.5 17.4477 13.5 18C13.5 18.5523 13.0523 19 12.5 19H11.5C10.9477 19 10.5 18.5523 10.5 18C10.5 17.4477 10.9477 17 11.5 17H12.5Z" fill="black"/>
<path d="M18 8L16.5 9.5L13 6V15H11V6L7.5 9.5L6 8L12 2L18 8Z" fill="black"/>
<path d="M12.5 21C13.0523 21 13.5 21.4477 13.5 22C13.5 22.5523 13.0523 23 12.5 23H11.5C10.9477 23 10.5 22.5523 10.5 22C10.5 21.4477 10.9477 21 11.5 21H12.5Z" fill="black"/>
</svg>
