<svg width="24" height="24" viewBox="0 0 24 24" fill="none" xmlns="http://www.w3.org/2000/svg">
<path fill-rule="evenodd" clip-rule="evenodd" d="M16 2C17.1046 2 18 2.89543 18 4V6H23V21H1V6H6V4C6 2.89543 6.89543 2 8 2H16ZM21 12.7891C19.4209 13.3796 17.1344 14.1562 15 14.6133V15C15 16.1046 14.1046 17 13 17H11L10.7959 16.9893C9.78722 16.887 9 16.0357 9 15V14.6133C6.86556 14.1562 4.57914 13.3796 3 12.7891V19H21V12.7891ZM11 15H13V13H11V15ZM3 10.6494C3.6856 10.916 4.60639 11.2604 5.63281 11.6025C6.75738 11.9774 7.93864 12.3256 9.04395 12.5811C9.2365 11.6776 10.0391 11 11 11H13C13.9608 11 14.7624 11.6777 14.9551 12.5811C16.0607 12.3256 17.2423 11.9775 18.3672 11.6025C19.3936 11.2604 20.3144 10.916 21 10.6494V8H3V10.6494ZM8 6H16V4H8V6Z" fill="black"/>
</svg>
