<svg width="24" height="24" viewBox="0 0 24 24" fill="none" xmlns="http://www.w3.org/2000/svg">
<path d="M6 0V2L9 2V0H6Z" fill="black"/>
<path fill-rule="evenodd" clip-rule="evenodd" d="M16 19V17.9297C18.3912 16.5465 20 13.9611 20 11C20 6.58172 16.4183 3 12 3C7.58172 3 4 6.58172 4 11C4 13.9611 5.60879 16.5465 8 17.9297V19C8 20.1046 8.89543 21 10 21H14C15.1046 21 16 20.1046 16 19ZM14.9985 16.1985L14 16.7762V19H10V16.7762L9.00145 16.1985C7.20283 15.1581 6 13.2183 6 11C6 7.68629 8.68629 5 12 5C15.3137 5 18 7.68629 18 11C18 13.2183 16.7972 15.1581 14.9985 16.1985Z" fill="black"/>
<path d="M8 23C8 22.4477 8.44771 22 9 22H15C15.5523 22 16 22.4477 16 23C16 23.5523 15.5523 24 15 24H9C8.44771 24 8 23.5523 8 23Z" fill="black"/>
<path d="M0 11H3V13H0V11Z" fill="black"/>
<path d="M24 11H21V13H24V11Z" fill="black"/>
<path d="M1 7V5L4 5V7L1 7Z" fill="black"/>
<path d="M15 2V0H18V2L15 2Z" fill="black"/>
<path d="M20 5V7L23 7V5L20 5Z" fill="black"/>
</svg>
