<svg width="24" height="24" viewBox="0 0 24 24" fill="none" xmlns="http://www.w3.org/2000/svg">
<path fill-rule="evenodd" clip-rule="evenodd" d="M8 12C10.7614 12 13 9.76142 13 7C13 4.23858 10.7614 2 8 2C5.23858 2 3 4.23858 3 7C3 9.76142 5.23858 12 8 12ZM8 10C9.65685 10 11 8.65685 11 7C11 5.34315 9.65685 4 8 4C6.34315 4 5 5.34315 5 7C5 8.65685 6.34315 10 8 10Z" fill="black"/>
<path fill-rule="evenodd" clip-rule="evenodd" d="M22 9.5C22 11.433 20.433 13 18.5 13C16.567 13 15 11.433 15 9.5C15 7.567 16.567 6 18.5 6C20.433 6 22 7.567 22 9.5ZM20 9.5C20 10.3284 19.3284 11 18.5 11C17.6716 11 17 10.3284 17 9.5C17 8.67157 17.6716 8 18.5 8C19.3284 8 20 8.67157 20 9.5Z" fill="black"/>
<path d="M14 21C14 17.6863 11.3137 15 8 15C4.68629 15 2 17.6863 2 21V22H0V21C0 16.5817 3.58172 13 8 13C12.4183 13 16 16.5817 16 21V22H14V21Z" fill="black"/>
<path d="M16.9059 16.4472C17.3988 16.1579 17.9472 16 18.5 16C20.2727 16 22 17.6235 22 20V22H24V20C24 16.6863 21.5376 14 18.5 14C17.5254 14 16.6099 14.2766 15.8161 14.7617C16.233 15.2834 16.5988 15.8478 16.9059 16.4472Z" fill="black"/>
</svg>
