<svg width="24" height="24" viewBox="0 0 24 24" fill="none" xmlns="http://www.w3.org/2000/svg">
<path fill-rule="evenodd" clip-rule="evenodd" d="M23 12C23 18.0751 18.0751 23 12 23C5.92487 23 1 18.0751 1 12C1 5.92487 5.92487 1 12 1C18.0751 1 23 5.92487 23 12ZM17.8444 18.8444C16.2719 20.1884 14.2307 21 12 21C7.02944 21 3 16.9706 3 12C3 9.76925 3.81158 7.72806 5.15559 6.15559L17.8444 18.8444ZM19.2854 17.2854L6.71464 4.71464C8.19871 3.63612 10.0251 3 12 3C16.9706 3 21 7.02944 21 12C21 13.9749 20.3639 15.8013 19.2854 17.2854Z" fill="black"/>
</svg>
