<svg xmlns="http://www.w3.org/2000/svg" width="24" height="24" fill="none"><path d="M8 10V9h1V7.268A2 2 0 0 1 12 9v1a2 2 0 1 1-4 0m6 0V9h1V7.268A2 2 0 0 1 18 9v1a2 2 0 1 1-4 0m-4 4h6l-2.333 2h-1.334z"/><path d="M3.558 21.564a4 4 0 0 0 2.17 1.755c.673.225 1.314.199 1.834.134.484-.06 1.056-.183 1.657-.311l7.724-1.656c.405-.086.806-.172 1.146-.272.38-.11.81-.273 1.232-.573a4 4 0 0 0 1.35-1.671c.206-.474.274-.93.303-1.324.026-.353.026-.764.026-1.178v-9.75c0-.442 0-.879-.028-1.252a4 4 0 0 0-.334-1.394 4 4 0 0 0-1.478-1.704 4 4 0 0 0-1.333-.527 17 17 0 0 0-1.234-.205L8.866.532C8.296.451 7.75.372 7.286.346 6.784.318 6.176.334 5.546.58a4 4 0 0 0-2.03 1.76c-.331.588-.433 1.189-.476 1.69C3 4.491 3 5.043 3 5.62v12.494c0 .615 0 1.2.043 1.685.045.523.154 1.155.515 1.765M16.253 3.608l-7.6-1.086c-1.26-.18-1.89-.27-2.38-.08a2 2 0 0 0-1.015.881C5 3.781 5 4.417 5 5.69v12.352c0 1.354 0 2.032.279 2.503a2 2 0 0 0 1.085.877c.52.174 1.182.032 2.506-.251l7.6-1.629c.902-.193 1.354-.29 1.69-.53a2 2 0 0 0 .676-.835c.164-.38.164-.841.164-1.764V6.775c0-.984 0-1.476-.181-1.872a2 2 0 0 0-.739-.852c-.366-.235-.853-.304-1.827-.443" clip-rule="evenodd"/></svg>