<svg width="24" height="24" viewBox="0 0 24 24" fill="none" xmlns="http://www.w3.org/2000/svg">
<path d="M3 4H21V14.5155C21.7553 15.0211 22.4298 15.638 23 16.3427V2H1V18H7.93552C8.29736 17.2719 8.7549 16.5997 9.29168 16H3V4Z" fill="black"/>
<path d="M19 17.9996C18.1643 17.3719 17.1256 17 16 17C13.9497 17 12.1876 18.2341 11.416 20C11.1484 20.6125 11 21.2889 11 22H9C9.00002 21.3051 9.1013 20.6336 9.28988 20C9.50489 19.2776 9.83338 18.604 10.2547 18C10.4781 17.6798 10.7275 17.3791 11 17.101C12.2705 15.8045 14.0413 15 16 15C17.3197 15 18.554 15.3652 19.6076 16C20.4531 16.5095 21.1821 17.1926 21.7453 18C22.1666 18.604 22.4951 19.2776 22.7101 20C22.8987 20.6336 23 21.3049 23 21.9997L21 22C21 21.2889 20.8516 20.6125 20.584 20C20.2361 19.2037 19.6863 18.5153 19 17.9996Z" fill="black"/>
<path d="M4 6H11.5278C11.0113 6.5771 10.6048 7.25476 10.3414 8H4V6Z" fill="black"/>
<path d="M4 9H10.083C10.0284 9.32521 10 9.65929 10 10C10 10.3407 10.0284 10.6748 10.083 11H4V9Z" fill="black"/>
<path d="M4 12H10.3414C10.6048 12.7452 11.0113 13.4229 11.5278 14H4V12Z" fill="black"/>
<path fill-rule="evenodd" clip-rule="evenodd" d="M16 14C18.2091 14 20 12.2091 20 10C20 7.79086 18.2091 6 16 6C13.7909 6 12 7.79086 12 10C12 12.2091 13.7909 14 16 14ZM16 12.2222C17.2273 12.2222 18.2222 11.2273 18.2222 10C18.2222 8.7727 17.2273 7.77778 16 7.77778C14.7727 7.77778 13.7778 8.7727 13.7778 10C13.7778 11.2273 14.7727 12.2222 16 12.2222Z" fill="black"/>
</svg>
