<svg xmlns="http://www.w3.org/2000/svg" width="24" height="24" fill="none"><path fill="currentColor" d="M12 2 1.5 5 2 7l10-3 10 3 .5-2z"/><path fill="currentColor" fill-rule="evenodd" d="M4.386 8.89c1.28-.035 2.892-.043 3.798.127.894.168 1.978.58 2.79.921.407.172.766.334 1.026.455.26-.121.619-.283 1.027-.455.811-.341 1.895-.753 2.789-.92.906-.17 2.519-.163 3.798-.127a74 74 0 0 1 2.252.099l.147.009.039.002.014.001L22 10l.066-.998.934.062v10.828l-.933.107-.141.017a96 96 0 0 0-2.197.29c-1.322.192-2.74.433-3.43.649a43 43 0 0 0-2.521.91c-.398.155-.747.295-.997.396l-.293.12-.079.032-.409.17-.385-.16-.024-.01-.079-.032q-.104-.044-.293-.12c-.25-.101-.6-.241-.997-.396a43 43 0 0 0-2.52-.91c-.691-.216-2.109-.457-3.431-.648a94 94 0 0 0-2.197-.291l-.14-.017L1 19.892V9.064l.934-.062L2 10l-.066-.998h.014l.04-.003.146-.009a69 69 0 0 1 2.252-.1M3 10.947v7.17c.426.054.972.127 1.558.212 1.287.186 2.87.445 3.74.718.816.255 1.843.64 2.651.956l.051.02v-7.888a29 29 0 0 0-.802-.352c-.798-.336-1.714-.674-2.382-.799-.656-.123-2.043-.13-3.374-.093-.535.015-1.038.036-1.442.056m10.05 9.056-.05.02v-7.888c.223-.102.498-.224.802-.352.798-.336 1.714-.674 2.382-.799.656-.123 2.043-.13 3.374-.093.535.015 1.038.036 1.442.056v7.17c-.426.054-.972.127-1.558.212-1.287.186-2.87.445-3.74.718a44 44 0 0 0-2.651.956" clip-rule="evenodd"/></svg>