<svg xmlns="http://www.w3.org/2000/svg" width="24" height="24" fill="none"><path fill="currentColor" d="M3 4h18v10.516a9 9 0 0 1 2 1.827V2H1v16h6.936c.361-.728.819-1.4 1.356-2H3z"/><path fill="currentColor" d="M19 18a5.001 5.001 0 0 0-8 4H9a6.97 6.97 0 0 1 2-4.899A6.98 6.98 0 0 1 16 15c1.32 0 2.554.365 3.608 1a7 7 0 0 1 2.137 2A6.97 6.97 0 0 1 23 22h-2a4.98 4.98 0 0 0-2-4M4 6h7.528a6 6 0 0 0-1.187 2H4zm0 3h6.083a6 6 0 0 0 0 2H4zm0 3h6.341c.264.745.67 1.423 1.187 2H4z"/><path fill="currentColor" fill-rule="evenodd" d="M16 14a4 4 0 1 0 0-8 4 4 0 0 0 0 8m0-1.778a2.222 2.222 0 1 0 0-4.444 2.222 2.222 0 0 0 0 4.444" clip-rule="evenodd"/></svg>