<svg width="24" height="24" viewBox="0 0 24 24" fill="none" xmlns="http://www.w3.org/2000/svg">
<path d="M21.3005 9.8542C21.7183 10.568 22 11.3316 22 12H20C20 11.8351 19.9067 11.432 19.5745 10.8646C19.2574 10.3229 18.7672 9.70948 18.0975 9.13277C16.7665 7.98663 14.7445 7 12 7C9.25547 7 7.23352 7.98663 5.90252 9.13277C5.23279 9.70948 4.74258 10.3229 4.42551 10.8646C4.09334 11.432 4 11.8351 4 12H2C2 11.3316 2.28166 10.568 2.69949 9.85419C3.13242 9.11459 3.76721 8.33218 4.59748 7.61723C6.26648 6.18004 8.74453 5 12 5C15.2555 5 17.7335 6.18004 19.4025 7.61723C20.2328 8.33219 20.8676 9.1146 21.3005 9.8542Z" fill="black"/>
<path d="M8 13C8 12.6547 8.04375 12.3196 8.12602 12H9C10.1046 12 11 11.1046 11 10V9.12602C11.3196 9.04375 11.6547 9 12 9C14.2091 9 16 10.7909 16 13V15C16 17.2091 14.2091 19 12 19C9.79086 19 8 17.2091 8 15V13Z" fill="black"/>
</svg>
