<svg xmlns="http://www.w3.org/2000/svg" width="24" height="24" fill="none"><path fill="currentColor" d="M21.3 9.854c.418.714.7 1.478.7 2.146h-2c0-.165-.093-.568-.425-1.135a7 7 0 0 0-1.477-1.732C16.767 7.987 14.745 7 12 7s-4.766.987-6.097 2.133a7 7 0 0 0-1.477 1.732C4.093 11.432 4 11.835 4 12H2c0-.668.282-1.432.7-2.146a9 9 0 0 1 1.897-2.237C6.267 6.18 8.745 5 12 5s5.733 1.18 7.403 2.617A9 9 0 0 1 21.3 9.854"/><path fill="currentColor" d="M8 13q.002-.519.126-1H9a2 2 0 0 0 2-2v-.874q.481-.124 1-.126a4 4 0 0 1 4 4v2a4 4 0 0 1-8 0z"/></svg>