<svg xmlns="http://www.w3.org/2000/svg" width="24" height="24" fill="none"><path d="M2.7 10.146C2.281 9.432 2 8.668 2 8h2c0 .165.093.568.426 1.135a7 7 0 0 0 1.477 1.732C7.233 12.013 9.255 13 12 13s4.767-.987 6.098-2.133a7 7 0 0 0 1.477-1.732C19.907 8.568 20 8.165 20 8h2c0 .668-.282 1.432-.7 2.146a8 8 0 0 1-.252.402L23 12.5 21.5 14l-1.843-1.844a10.4 10.4 0 0 1-2.283 1.591L18.5 16l-2 1-1.217-2.435c-.707.196-1.468.334-2.283.397V18h-2v-3.038c-.815-.063-1.576-.2-2.282-.397L7.5 17l-2-1 1.126-2.252a10.4 10.4 0 0 1-2.282-1.591L2.5 14 1 12.5l1.952-1.952a8 8 0 0 1-.253-.402"/></svg>