<svg width="24" height="24" viewBox="0 0 24 24" fill="none" xmlns="http://www.w3.org/2000/svg">
<path fill-rule="evenodd" clip-rule="evenodd" d="M22 6C22 8.20914 20.2091 10 18 10C15.7909 10 14 8.20914 14 6C14 3.79086 15.7909 2 18 2C20.2091 2 22 3.79086 22 6ZM20 6C20 7.10457 19.1046 8 18 8C16.8954 8 16 7.10457 16 6C16 4.89543 16.8954 4 18 4C19.1046 4 20 4.89543 20 6Z" fill="black"/>
<path fill-rule="evenodd" clip-rule="evenodd" d="M2 18C2 20.2091 3.79086 22 6 22C8.20914 22 10 20.2091 10 18C10 15.7909 8.20914 14 6 14C3.79086 14 2 15.7909 2 18ZM4 18C4 19.1046 4.89543 20 6 20C7.10457 20 8 19.1046 8 18C8 16.8954 7.10457 16 6 16C4.89543 16 4 16.8954 4 18Z" fill="black"/>
<path d="M8.5 2L6 4.5L3.5 2L2 3.5L4.5 6L2 8.5L3.5 10L6 7.5L8.5 10L10 8.5L7.5 6L10 3.5L8.5 2Z" fill="black"/>
<path d="M18 16.5L15.5 14L14 15.5L16.5 18L14 20.5L15.5 22L18 19.5L20.5 22L22 20.5L19.5 18L22 15.5L20.5 14L18 16.5Z" fill="black"/>
</svg>
