<svg width="24" height="24" viewBox="0 0 24 24" fill="none" xmlns="http://www.w3.org/2000/svg">
<path d="M10.5 6.5C10.5 5.67157 11.1716 5 12 5C12.8284 5 13.5 5.67157 13.5 6.5C13.5 7.32843 12.8284 8 12 8C11.1716 8 10.5 7.32843 10.5 6.5Z" fill="black"/>
<path d="M13 19V10H11V19H13Z" fill="black"/>
<path fill-rule="evenodd" clip-rule="evenodd" d="M12 23C18.0751 23 23 18.0751 23 12C23 5.92487 18.0751 1 12 1C5.92487 1 1 5.92487 1 12C1 18.0751 5.92487 23 12 23ZM12 21C16.9706 21 21 16.9706 21 12C21 7.02944 16.9706 3 12 3C7.02944 3 3 7.02944 3 12C3 16.9706 7.02944 21 12 21Z" fill="black"/>
</svg>
