<svg width="24" height="24" viewBox="0 0 24 24" fill="none" xmlns="http://www.w3.org/2000/svg">
<path fill-rule="evenodd" clip-rule="evenodd" d="M10 11C10 12.6569 8.65685 14 7 14C5.34315 14 4 12.6569 4 11C4 9.34315 5.34315 8 7 8C8.65685 8 10 9.34315 10 11ZM8 11C8 11.5523 7.55228 12 7 12C6.44772 12 6 11.5523 6 11C6 10.4477 6.44772 10 7 10C7.55228 10 8 10.4477 8 11Z" fill="black"/>
<path fill-rule="evenodd" clip-rule="evenodd" d="M16 14H13.3264C12.2029 16.3649 9.7924 18 7 18C3.13401 18 0 14.866 0 11C0 7.13401 3.13401 4 7 4C9.7924 4 12.2029 5.63505 13.3264 8H24V14H22V20H16V14ZM12.0623 12L11.5198 13.1418C10.7152 14.8357 8.99156 16 7 16C4.23858 16 2 13.7614 2 11C2 8.23858 4.23858 6 7 6C8.99156 6 10.7152 7.16429 11.5198 8.85818L12.0623 10H22V12H20V18H18V12H12.0623Z" fill="black"/>
</svg>
