<svg xmlns="http://www.w3.org/2000/svg" width="24" height="24" fill="none"><path fill="currentColor" d="m18.005 10.234 2.119-2.12a2.997 2.997 0 1 0-4.239-4.238L10.94 8.821a2.997 2.997 0 0 0 0 4.239l.707.706-1.413 1.413-.707-.707a4.995 4.995 0 0 1 0-7.064l4.946-4.945a4.995 4.995 0 0 1 7.064 7.064l-3.532 3.533a2 2 0 0 1 0-2.826"/><path fill="currentColor" d="m5.995 13.766-2.119 2.12a2.997 2.997 0 1 0 4.239 4.238l4.945-4.945a2.997 2.997 0 0 0 0-4.239l-.707-.706 1.413-1.413.707.706a4.995 4.995 0 0 1 0 7.065l-4.946 4.945a4.995 4.995 0 1 1-7.064-7.064l3.532-3.533c.78.78.78 2.046 0 2.826"/></svg>