<svg width="24" height="24" viewBox="0 0 24 24" fill="none" xmlns="http://www.w3.org/2000/svg">
<path d="M4 3C2.89543 3 2 3.89543 2 5C2 6.10457 2.89543 7 4 7C5.10457 7 6 6.10457 6 5C6 3.89543 5.10457 3 4 3Z" fill="black"/>
<path d="M4 10C2.89543 10 2 10.8954 2 12C2 13.1046 2.89543 14 4 14C5.10457 14 6 13.1046 6 12C6 10.8954 5.10457 10 4 10Z" fill="black"/>
<path d="M2 19C2 17.8954 2.89543 17 4 17C5.10457 17 6 17.8954 6 19C6 20.1046 5.10457 21 4 21C2.89543 21 2 20.1046 2 19Z" fill="black"/>
<path d="M22 4H8V6H22V4Z" fill="black"/>
<path d="M8 11H22V13H8V11Z" fill="black"/>
<path d="M22 18H8V20H22V18Z" fill="black"/>
</svg>
