<svg width="24" height="24" viewBox="0 0 24 24" fill="none" xmlns="http://www.w3.org/2000/svg">
<path d="M1.28656 10.0001V8.5001H2.80656V5.5201C2.80656 5.2501 2.81656 4.9701 2.81656 4.9701H2.79657C2.79657 4.9701 2.70657 5.1701 2.51656 5.3501L2.08657 5.7401L1.07656 4.6601L3.00657 2.8501H4.51656V8.5001H6.04657V10.0001H1.28656Z" fill="black"/>
<path d="M8 4.0001H22V6.0001H8V4.0001Z" fill="black"/>
<path d="M8 11.0001H22V13.0001H8V11.0001Z" fill="black"/>
<path d="M22 18.0001H8V20.0001H22V18.0001Z" fill="black"/>
<path d="M0.977073 20.2301C0.977073 20.4701 1.00707 20.7201 1.05707 21.0001H6.00707V19.5001H2.96707C2.98642 19.1441 3.4294 18.8615 3.96532 18.5197C4.81453 17.9779 5.89707 17.2873 5.89707 15.9201C5.89707 14.4001 4.62707 13.7301 3.45707 13.7301C1.59707 13.7301 0.937073 15.2701 0.937073 15.2701L2.23707 16.1401C2.23707 16.1401 2.61707 15.3801 3.29707 15.3801C3.66707 15.3801 4.06707 15.5901 4.06707 16.0901C4.06707 16.4861 3.61031 16.7993 3.04802 17.1849C2.1478 17.8023 0.977073 18.6051 0.977073 20.2301Z" fill="black"/>
</svg>
