<svg xmlns="http://www.w3.org/2000/svg" width="24" height="24" fill="none"><path fill="currentColor" d="M1.287 10V8.5h1.52V5.52c0-.27.01-.55.01-.55h-.02s-.09.2-.28.38l-.43.39-1.01-1.08 1.93-1.81h1.51V8.5h1.53V10zM8 4h14v2H8zm0 7h14v2H8zm14 7H8v2h14zM.977 20.23c0 .24.03.49.08.77h4.95v-1.5h-3.04c.02-.356.462-.639.998-.98.85-.542 1.932-1.233 1.932-2.6 0-1.52-1.27-2.19-2.44-2.19-1.86 0-2.52 1.54-2.52 1.54l1.3.87s.38-.76 1.06-.76c.37 0 .77.21.77.71 0 .396-.457.71-1.019 1.095-.9.617-2.07 1.42-2.07 3.045"/></svg>