<svg width="24" height="24" viewBox="0 0 24 24" fill="none" xmlns="http://www.w3.org/2000/svg">
<path fill-rule="evenodd" clip-rule="evenodd" d="M12 11C14.7614 11 17 8.76142 17 6C17 3.23858 14.7614 1 12 1C9.23858 1 7 3.23858 7 6C7 8.76142 9.23858 11 12 11ZM12 9C13.6569 9 15 7.65685 15 6C15 4.34315 13.6569 3 12 3C10.3431 3 9 4.34315 9 6C9 7.65685 10.3431 9 12 9Z" fill="black"/>
<path d="M22 21.9995C22 21.3147 21.9311 20.6461 21.8 20C20.8734 15.4355 16.8379 12 12 12C7.16208 12 3.12658 15.4355 2.20004 20C2.06889 20.6461 2.00004 21.3147 2 21.9995L4 22C4 21.3094 4.08751 20.6392 4.25203 20C5.14012 16.5495 8.27232 14 12 14C15.7277 14 18.8599 16.5495 19.748 20C19.9125 20.6392 20 21.3094 20 22L22 21.9995Z" fill="black"/>
</svg>
