<svg width="24" height="24" viewBox="0 0 24 24" fill="none" xmlns="http://www.w3.org/2000/svg">
<path d="M5 5H7V7H5V5Z" fill="black"/>
<path fill-rule="evenodd" clip-rule="evenodd" d="M2 10V2H10V10H2ZM4 4H8V8H4V4Z" fill="black"/>
<path d="M5 19V17H7V19H5Z" fill="black"/>
<path fill-rule="evenodd" clip-rule="evenodd" d="M2 22V14H10V22H2ZM8 16V20H4V16H8Z" fill="black"/>
<path d="M19 5H17V7H19V5Z" fill="black"/>
<path fill-rule="evenodd" clip-rule="evenodd" d="M22 2H14V10H22V2ZM20 4H16V8H20V4Z" fill="black"/>
<path d="M22 11H20V13H18V15H16V13H17V11H14V15H16V17H14V19H16V17H18V19H20V20H18V22H22V17H18V15H22V11Z" fill="black"/>
<path d="M13 3H11V7H13V3Z" fill="black"/>
<path d="M13 8H11V10H13V8Z" fill="black"/>
<path d="M13 11H11V17H13V11Z" fill="black"/>
<path d="M11 18H13V20H16V22H11V18Z" fill="black"/>
<path d="M6 11V13H10V11H6Z" fill="black"/>
<path d="M3 11V13H5V11H3Z" fill="black"/>
</svg>
