<svg xmlns="http://www.w3.org/2000/svg" width="24" height="24" fill="none"><path d="M5 5h2v2H5z"/><path d="M2 10V2h8v8zm2-6h4v4H4z" clip-rule="evenodd"/><path d="M5 19v-2h2v2z"/><path d="M2 22v-8h8v8zm6-6v4H4v-4z" clip-rule="evenodd"/><path d="M19 5h-2v2h2z"/><path d="M22 2h-8v8h8zm-2 2h-4v4h4z" clip-rule="evenodd"/><path d="M22 11h-2v2h-2v2h-2v-2h1v-2h-3v4h2v2h-2v2h2v-2h2v2h2v1h-2v2h4v-5h-4v-2h4zm-9-8h-2v4h2zm0 5h-2v2h2zm0 3h-2v6h2z"/><path d="M11 18h2v2h3v2h-5zm-5-7v2h4v-2zm-3 0v2h2v-2z"/></svg>