<svg width="24" height="24" viewBox="0 0 24 24" fill="none" xmlns="http://www.w3.org/2000/svg">
<path fill-rule="evenodd" clip-rule="evenodd" d="M8 4C8 1.79086 9.79086 0 12 0C14.2091 0 16 1.79086 16 4V12C16 14.2091 14.2091 16 12 16C9.79086 16 8 14.2091 8 12V4ZM14 4V12C14 13.1046 13.1046 14 12 14C10.8954 14 10 13.1046 10 12V4C10 2.89543 10.8954 2 12 2C13.1046 2 14 2.89543 14 4Z" fill="black"/>
<path d="M4 12C4 16.0796 7.05369 19.446 11 19.9381V24H13V19.9381C16.9463 19.446 20 16.0796 20 12H18C18 15.3137 15.3137 18 12 18C8.68629 18 6 15.3137 6 12H4Z" fill="black"/>
</svg>
