<svg xmlns="http://www.w3.org/2000/svg" width="24" height="24" fill="none"><path fill="currentColor" d="M14.05 3H4v17h5.865a7.5 7.5 0 0 0 1.536 2H2V1h12.879L20 6.121v3.744a7.5 7.5 0 0 0-2-.715v-2.2z"/><path fill="currentColor" d="M6 6h9v2H6zm0 4h6.756a7.5 7.5 0 0 0-2.257 2H6zm3.016 6a7.5 7.5 0 0 1 .41-2H6v2z"/><path fill="currentColor" fill-rule="evenodd" d="M22 16.5a5.47 5.47 0 0 1-.968 3.117l2.675 2.676-1.414 1.414-2.675-2.675A5.5 5.5 0 1 1 22 16.5m-2 0a3.5 3.5 0 1 1-7 0 3.5 3.5 0 0 1 7 0" clip-rule="evenodd"/></svg>