<svg width="24" height="24" viewBox="0 0 24 24" fill="none" xmlns="http://www.w3.org/2000/svg">
<path d="M9.55279 15.7764C9.67628 15.5294 9.97662 15.4293 10.2236 15.5528C10.6259 15.7539 11.2881 15.875 12 15.875C12.7119 15.875 13.3741 15.7539 13.7764 15.5528C14.0234 15.4293 14.3237 15.5294 14.4472 15.7764C14.5707 16.0234 14.4706 16.3237 14.2236 16.4472C13.6259 16.7461 12.7881 16.875 12 16.875C11.2119 16.875 10.3741 16.7461 9.77639 16.4472C9.5294 16.3237 9.42929 16.0234 9.55279 15.7764Z" fill="black"/>
<path d="M8 13.5C8 14.3284 7.32843 15 6.5 15C5.67157 15 5 14.3284 5 13.5C5 12.6716 5.67157 12 6.5 12C6.67532 12 6.84361 12.0301 7 12.0854V13H7.91465C7.96992 13.1564 8 13.3247 8 13.5Z" fill="black"/>
<path d="M17.5 15C18.3284 15 19 14.3284 19 13.5C19 13.3247 18.9699 13.1564 18.9146 13H18V12.0854C17.8436 12.0301 17.6753 12 17.5 12C16.6716 12 16 12.6716 16 13.5C16 14.3284 16.6716 15 17.5 15Z" fill="black"/>
<path fill-rule="evenodd" clip-rule="evenodd" d="M15 3C15 4.30622 14.1652 5.41746 13 5.82929V7.5H16.25C20.5302 7.5 24 10.9698 24 15.25C24 19.5302 20.5302 23 16.25 23H7.75C3.46979 23 0 19.5302 0 15.25C0 10.9698 3.46979 7.5 7.75 7.5H11V5.82929C9.83481 5.41746 9 4.30622 9 3C9 1.34315 10.3431 0 12 0C13.6569 0 15 1.34315 15 3ZM12 4C12.5523 4 13 3.55228 13 3C13 2.44772 12.5523 2 12 2C11.4477 2 11 2.44772 11 3C11 3.55228 11.4477 4 12 4ZM2 15.25C2 12.0744 4.57436 9.5 7.75 9.5H16.25C19.4256 9.5 22 12.0744 22 15.25C22 18.4256 19.4256 21 16.25 21H7.75C4.57436 21 2 18.4256 2 15.25Z" fill="black"/>
</svg>
