<svg xmlns="http://www.w3.org/2000/svg" width="24" height="24" fill="none"><path d="M9.553 15.776a.5.5 0 0 1 .67-.223c.403.2 1.065.322 1.777.322s1.374-.121 1.776-.322a.5.5 0 1 1 .448.894c-.598.3-1.436.428-2.224.428s-1.626-.129-2.224-.428a.5.5 0 0 1-.223-.67M8 13.5a1.5 1.5 0 1 1-1-1.415V13h.915q.084.236.085.5m9.5 1.5a1.5 1.5 0 0 0 1.415-2H18v-.915A1.5 1.5 0 1 0 17.5 15"/><path d="M15 3a3 3 0 0 1-2 2.83V7.5h3.25a7.75 7.75 0 0 1 0 15.5h-8.5a7.75 7.75 0 0 1 0-15.5H11V5.83A3.001 3.001 0 1 1 15 3m-3 1a1 1 0 1 0 0-2 1 1 0 0 0 0 2M2 15.25A5.75 5.75 0 0 1 7.75 9.5h8.5a5.75 5.75 0 0 1 0 11.5h-8.5A5.75 5.75 0 0 1 2 15.25" clip-rule="evenodd"/></svg>