<svg xmlns="http://www.w3.org/2000/svg" width="24" height="24" fill="none"><path fill="currentColor" fill-rule="evenodd" d="M9.947 1.191a11 11 0 0 1 4.107 0l.779.72.535 1.959 1.762-1.007 1.06.042a11 11 0 0 1 2.904 2.905l.042 1.06-1.006 1.762 1.96.535.718.779a11 11 0 0 1 0 4.106l-.719.78-1.96.534 1.008 1.764-.042 1.06a11 11 0 0 1-2.904 2.904l-1.06.042-1.763-1.007-.536 1.96-.779.72a11.1 11.1 0 0 1-4.106 0l-.779-.72-.535-1.96-1.764 1.007-1.06-.042a11 11 0 0 1-2.903-2.904l-.043-1.06 1.008-1.763-1.96-.536-.72-.779a11 11 0 0 1 0-4.106l.72-.78 1.96-.534-1.007-1.763.042-1.06a11 11 0 0 1 2.905-2.904l1.06-.042L8.632 3.87l.535-1.96zm.98 1.872-.704 2.578-1.461.605-2.32-1.325a9 9 0 0 0-1.52 1.519l1.326 2.32-.605 1.461-2.58.704a9 9 0 0 0 0 2.148l2.58.704.605 1.46-1.326 2.322a9 9 0 0 0 1.518 1.519l2.322-1.326 1.46.605.705 2.58a9 9 0 0 0 2.147 0l.704-2.58 1.46-.605 2.322 1.326a9 9 0 0 0 1.519-1.52l-1.326-2.32.605-1.46 2.579-.705a9 9 0 0 0 0-2.148l-2.579-.704-.605-1.46 1.325-2.32a9 9 0 0 0-1.519-1.52l-2.32 1.325-1.46-.605-.705-2.578a9 9 0 0 0-2.148 0M12 10a2 2 0 1 0 0 4 2 2 0 0 0 0-4m-4 2a4 4 0 1 1 8 0 4 4 0 0 1-8 0" clip-rule="evenodd"/></svg>