<svg xmlns="http://www.w3.org/2000/svg" width="24" height="24" fill="none"><path fill="currentColor" d="M3.583 20.418a1.998 1.998 0 1 0 2.826-2.827 1.998 1.998 0 0 0-2.826 2.826"/><path fill="currentColor" fill-rule="evenodd" d="M18.42 6.994a1 1 0 0 1-1.414-1.413l4.189-4.189a6.994 6.994 0 0 0-9.134.656 7 7 0 0 0-1.644 7.296l-4.714 4.715a4.996 4.996 0 1 0 4.239 4.24l4.714-4.716a6.995 6.995 0 0 0 7.952-10.778zM6.287 16.299a2.999 2.999 0 0 0-3.412 4.825A2.997 2.997 0 0 0 7.7 17.712l6.55-6.55a4.997 4.997 0 0 0 7.701-4.875l-2.12 2.12a2.997 2.997 0 1 1-4.239-4.239l2.12-2.12a4.998 4.998 0 0 0-4.875 7.701z" clip-rule="evenodd"/></svg>