<svg width="24" height="24" viewBox="0 0 24 24" fill="none" xmlns="http://www.w3.org/2000/svg">
<path d="M3.58272 20.4175C4.36309 21.1978 5.62832 21.1978 6.40869 20.4175C7.18905 19.6371 7.18905 18.3718 6.40869 17.5915C5.62832 16.8111 4.36309 16.8111 3.58272 17.5915C2.80235 18.3718 2.80235 19.6371 3.58272 20.4175Z" fill="black"/>
<path fill-rule="evenodd" clip-rule="evenodd" d="M18.4191 6.99399C18.0289 7.38417 17.3963 7.38417 17.0061 6.99399C16.6159 6.6038 16.6159 5.97118 17.0061 5.58099L21.195 1.39207C20.6247 0.964544 20.004 0.63549 19.3561 0.404913C16.8916 -0.472194 14.0335 0.0756654 12.0607 2.04849C10.0879 4.02131 9.54 6.87948 10.4171 9.34403L5.70256 14.0586C4.20005 13.845 2.61892 14.3161 1.46319 15.4718C-0.48773 17.4228 -0.487731 20.5859 1.46319 22.5368C3.41411 24.4878 6.57718 24.4878 8.5281 22.5368C9.68375 21.3812 10.1548 19.8002 9.94137 18.2977L14.656 13.583C17.1206 14.4602 19.9787 13.9123 21.9515 11.9395C23.9243 9.96665 24.4722 7.10847 23.5951 4.64391C23.3645 3.99602 23.0355 3.37532 22.6079 2.80507L18.4191 6.99399ZM6.28803 16.2989C5.17387 15.7667 3.79901 15.962 2.87617 16.8848C1.70562 18.0554 1.70562 19.9533 2.87617 21.1238C4.04673 22.2944 5.94457 22.2944 7.11512 21.1238C8.03795 20.201 8.23325 18.8261 7.70101 17.7119L14.2508 11.1623C16.1905 12.4474 18.8296 12.2355 20.5386 10.5265C21.6938 9.37126 22.1653 7.78955 21.9521 6.28697L19.8321 8.40698C18.6615 9.57755 16.7637 9.57755 15.5931 8.40698C14.4226 7.23642 14.4226 5.33856 15.5931 4.16799L17.7131 2.04797C16.2105 1.83476 14.6289 2.30626 13.4736 3.46149C11.7647 5.1705 11.5527 7.80966 12.8378 9.74937L6.28803 16.2989Z" fill="black"/>
</svg>
