<svg width="24" height="24" viewBox="0 0 24 24" fill="none" xmlns="http://www.w3.org/2000/svg">
<path d="M16.6543 16.4141L14.8271 18.2412H21.6543V20.2412H14.8262L16.6543 22.0693L15.2402 23.4834L11 19.2393L15.2393 15L16.6543 16.4141Z" fill="black"/>
<path d="M8 13C9.80369 13 11.4676 13.5974 12.8057 14.6045L11.3721 16.0371C10.411 15.3828 9.2503 15 8 15C4.68629 15 2 17.6863 2 21V22H0V21C0 16.5817 3.58172 13 8 13Z" fill="black"/>
<path d="M23.6543 11.998L19.4141 16.2422L18 14.8281L19.8281 13H13V11H19.8271L18 9.17285L19.415 7.75879L23.6543 11.998Z" fill="black"/>
<path fill-rule="evenodd" clip-rule="evenodd" d="M8 2C10.7614 2 13 4.23858 13 7C13 9.76142 10.7614 12 8 12C5.23858 12 3 9.76142 3 7C3 4.23858 5.23858 2 8 2ZM8 4C6.34315 4 5 5.34315 5 7C5 8.65685 6.34315 10 8 10C9.65685 10 11 8.65685 11 7C11 5.34315 9.65685 4 8 4Z" fill="black"/>
</svg>
